<svg width="22" height="22" viewBox="0 0 22 22" fill="none" xmlns="http://www.w3.org/2000/svg">
<path opacity="0.5" fill-rule="evenodd" clip-rule="evenodd" d="M8.24963 1.37544H1.37444V8.25062H8.24963V1.37544ZM8.24963 9.62506H1.37444C0.615301 9.62506 0 9.00976 0 8.25062V1.37544C0 0.6163 0.615301 0 1.37444 0H8.24963C9.00876 0 9.62506 0.6163 9.62506 1.37544V8.25062C9.62506 9.00976 9.00876 9.62506 8.24963 9.62506ZM8.24963 13.7504H1.37444V20.6256H8.24963V13.7504ZM8.24963 22H1.37444C0.615301 22 0 21.3847 0 20.6256V13.7504C0 12.9902 0.615301 12.3749 1.37444 12.3749H8.24963C9.00876 12.3749 9.62506 12.9902 9.62506 13.7504V20.6256C9.62506 21.3847 9.00876 22 8.24963 22ZM20.6246 1.37544H13.7494V8.25062H20.6246V1.37544ZM20.6246 9.62506H13.7494C12.9902 9.62506 12.3749 9.00976 12.3749 8.25062V1.37544C12.3749 0.6163 12.9902 0 13.7494 0H20.6246C21.3837 0 22 0.6163 22 1.37544V8.25062C22 9.00976 21.3837 9.62506 20.6246 9.62506ZM20.6246 13.7504H13.7494V20.6256H20.6246V13.7504ZM20.6246 22H13.7494C12.9902 22 12.3749 21.3847 12.3749 20.6256V13.7504C12.3749 12.9902 12.9902 12.3749 13.7494 12.3749H20.6246C21.3837 12.3749 22 12.9902 22 13.7504V20.6256C22 21.3847 21.3837 22 20.6246 22Z" fill="#013C61"/>
</svg>
